Coordinates
version=1
nRows=17
nColumns=33
inDegrees=yes

Units are S.I. units (second, meters, Newtons, ...)
Angles are in degrees.

endheader
time	ground_thorax_rot_x	ground_thorax_rot_y	ground_thorax_rot_z	ground_thorax_tx	ground_thorax_ty	ground_thorax_tz	clav_prot_r	clav_elev_r	scapula_abduction_r	scapula_elevation_r	scapula_upward_rot_r	scapula_winging_r	shoulder_elv_r	plane_of_elev_r	axial_rot_r	elbow_flexion_r	pro_sup_r	wrist_flex_r	wrist_dev_r	clav_prot_l	clav_elev_l	scapula_abduction_l	scapula_elevation_l	scapula_upward_rot_l	scapula_winging_l	shoulder_elv_l	plane_of_elev_l	axial_rot_l	elbow_flexion_l	pro_sup_l	wrist_flex_l	wrist_dev_l
      1.51000000	      2.58727501	     -0.49652203	     -8.41257941	     -0.08144346	      1.04659878	      0.00786823	    -12.72923865	     -9.80673054	    -13.82323759	     -2.32118127	      2.78411683	      1.99843724	     54.69067094	    -47.71213166	     61.25910937	     54.16015545	      7.32966917	     18.19284766	      4.35460626	     -6.59115116	     -6.73734192	      6.44333802	     -3.75876537	     -8.68517816	     -2.58593236	     54.21661749	    -50.33297937	    -42.91656215	     51.67239765	     11.32096995	     -1.91214454	    -24.99999983
      1.52000000	      2.58556729	     -0.49838010	     -8.41161590	     -0.08134645	      1.04679734	      0.00780330	    -12.72928652	     -9.80503152	    -13.82315157	     -2.32034170	      2.78567801	      1.99821300	     54.69156160	    -47.71207174	     61.25859004	     54.16150787	      7.32975422	     18.19378688	      4.35404154	     -6.59057091	     -6.73677972	      6.44182579	     -3.75827533	     -8.68298207	     -2.58715496	     54.21774176	    -50.33212689	    -42.91557467	     51.67314218	     11.32088590	     -1.91263228	    -24.99999983
      1.53000000	      2.54376500	     -0.52243027	     -8.41186101	     -0.08143581	      1.04629920	      0.00781601	    -12.74291866	     -9.60515500	    -13.79976533	     -2.19976455	      2.96158341	      1.88078179	     54.64452381	    -47.74530414	     61.27871179	     54.56344936	      7.39768705	     18.49181533	      4.26543911	     -6.54960401	     -6.63953959	      6.33656893	     -3.78682349	     -8.51916042	     -2.51511662	     54.14791868	    -50.51342591	    -42.79298621	     51.97503873	     11.33998414	     -2.04739058	    -24.99999983
      1.54000000	      2.54151172	     -0.52565093	     -8.40912307	     -0.08124485	      1.04661937	      0.00772841	    -12.74290686	     -9.60325127	    -13.79896094	     -2.19925947	      2.96500151	      1.88137891	     54.64678466	    -47.74396489	     61.27739220	     54.56464569	      7.39775461	     18.49252548	      4.26500011	     -6.54870241	     -6.63877730	      6.33386345	     -3.78596656	     -8.51583976	     -2.51605417	     54.15020764	    -50.51130486	    -42.79207657	     51.97631981	     11.33998128	     -2.04793004	    -24.99999983
      1.55000000	      2.67433370	     -0.46331480	     -8.41689981	     -0.08153714	      1.04640552	      0.00783326	    -12.90110104	     -9.17195446	    -13.71547812	     -2.13817804	      3.90578008	      1.53029682	     54.09740943	    -47.98621135	     61.19711479	     54.73760771	      8.33810578	     19.30374396	      4.46154300	     -6.16639443	     -6.77689745	      5.39381125	     -3.37879436	     -7.74620694	     -2.23836304	     53.30922253	    -51.41139542	    -42.45725482	     52.28973914	     12.19467323	     -2.85874063	    -24.99999983
      1.56000000	      2.58537035	     -0.51509470	     -8.44001268	     -0.08153018	      1.04634824	      0.00780272	    -12.91007674	     -9.09511545	    -13.70357654	     -2.09821461	      3.99110046	      1.48234149	     54.08477823	    -47.96325241	     61.17376192	     55.04984345	      8.34641298	     19.34614153	      4.47010611	     -6.14842018	     -6.64200338	      5.35893652	     -3.47271212	     -7.66569080	     -2.17920608	     53.37749773	    -51.43351651	    -42.44252943	     52.54258678	     12.22492332	     -2.87082725	    -24.99999983
      1.57000000	      2.53026532	     -0.50361371	     -8.48230415	     -0.08162860	      1.04614838	      0.00762072	    -12.89117378	     -8.96351372	    -13.64054664	     -2.01767135	      4.10710722	      1.40184171	     54.11296450	    -47.96154189	     61.21396691	     55.43568504	      8.37854128	     19.39028415	      4.53970076	     -6.11887446	     -6.46581105	      5.29381853	     -3.58357615	     -7.52914321	     -2.09604091	     53.46346327	    -51.43835442	    -42.48255006	     53.02950871	     12.28331488	     -2.89143072	    -24.99999983
      1.58000000	      2.45188215	     -0.50481396	     -8.45777582	     -0.08175607	      1.04599265	      0.00751481	    -12.87372200	     -8.78852131	    -13.56744158	     -1.91262781	      4.26675395	      1.29635604	     54.15735089	    -47.99438410	     61.30493935	     55.92657338	      8.45188255	     19.40013382	      4.71021531	     -6.07344045	     -6.24736904	      5.19765294	     -3.72250274	     -7.36455715	     -1.99341722	     53.60515934	    -51.52686215	    -42.60646462	     53.56381509	     12.41766884	     -2.89282184	    -24.99999983
      1.59000000	      2.42414439	     -0.47616578	     -8.41163351	     -0.08171920	      1.04617888	      0.00750602	    -12.99398250	     -8.70236313	    -13.56987388	     -2.00113704	      4.73854657	      1.17831405	     54.33714226	    -48.26013063	     61.47635434	     56.73169355	      9.17703206	     18.58441995	      5.91094403	     -6.09076879	     -6.21418403	      5.13246880	     -3.63129298	     -7.04452562	     -1.92193469	     53.99456700	    -51.86058706	    -43.13883401	     54.23486150	     13.58227435	     -2.74929385	    -24.99999983
      1.60000000	      2.34057683	     -0.54496579	     -8.50164314	     -0.08178402	      1.04608573	      0.00746878	    -12.98586156	     -8.52678729	    -13.49981789	     -1.90486004	      4.92435705	      1.06835563	     54.41658658	    -48.19185957	     61.51345311	     57.36901632	      9.19767101	     18.73334373	      5.93923910	     -6.07594924	     -5.99857071	      5.08906777	     -3.76461151	     -6.87403912	     -1.82983495	     54.14859023	    -51.91211298	    -43.13917441	     54.85535795	     13.61285108	     -2.79654520	    -24.99999983
      1.61000000	      2.28385674	     -0.55691949	     -8.57859749	     -0.08199556	      1.04589665	      0.00727727	    -12.92540925	     -8.28251272	    -13.33594718	     -1.75556315	      5.14358128	      0.91638829	     54.55546174	    -48.14347950	     61.68762473	     58.07904906	      9.25107503	     18.85757538	      6.06490230	     -6.03010689	     -5.73217846	      4.98205430	     -3.92465032	     -6.64928685	     -1.70263673	     54.34093716	    -51.97623198	    -43.24765276	     55.69424237	     13.67372564	     -2.81324667	    -24.99999983
      1.62000000	      2.35863310	     -0.64102318	     -8.39944948	     -0.08183807	      1.04618234	      0.00729189	    -13.04118233	     -8.09603110	    -13.30670624	     -1.77924065	      5.69483121	      0.73867876	     55.34418145	    -48.37598677	     62.50302369	     59.38265513	     10.14913145	     17.94322277	      7.43992176	     -6.20429821	     -5.85053359	      5.16430329	     -3.68759802	     -6.32081040	     -1.72410993	     55.06379759	    -52.65843170	    -44.02872255	     56.74040648	     14.70390848	     -2.27545623	    -24.99999983
      1.63000000	      2.24329982	     -0.71374868	     -8.58371119	     -0.08205866	      1.04612633	      0.00727330	    -12.98228110	     -7.87177490	    -13.13371153	     -1.65325854	      5.92898323	      0.59194835	     55.45660319	    -48.21149485	     62.62187875	     60.26296791	     10.15822182	     18.15685029	      7.48035666	     -6.15059406	     -5.56181910	      5.04030190	     -3.86163448	     -6.07805450	     -1.58307321	     55.31708162	    -52.67785743	    -44.07417802	     57.57715142	     14.70533423	     -2.31356367	    -24.99999983
      1.64000000	      2.18052591	     -0.76064403	     -8.66972704	     -0.08227235	      1.04584148	      0.00709569	    -12.92915781	     -7.53716410	    -12.95294343	     -1.45565133	      6.24485647	      0.38872596	     55.69698130	    -48.13136837	     62.83962089	     61.23606760	     10.19423059	     18.35319546	      7.61746721	     -6.09822905	     -5.18034639	      4.92210109	     -4.10303071	     -5.79071096	     -1.41652291	     55.57601891	    -52.77233487	    -44.21149585	     58.70232636	     14.71271909	     -2.31619776	    -24.99999983
      1.65000000	      2.29215039	     -0.85391144	     -8.41945364	     -0.08205294	      1.04632044	      0.00712830	    -13.09683368	     -7.37507442	    -13.00186281	     -1.50376937	      6.80036880	      0.22637165	     56.99607406	    -48.28265632	     64.14364414	     62.89542810	     11.14460021	     17.50850359	      9.23619142	     -6.32215174	     -5.35036752	      5.17064991	     -3.80906547	     -5.43769831	     -1.45846722	     56.60591588	    -53.58332820	    -45.27876545	     59.98108320	     15.17168420	     -1.35628438	    -24.99999983
      1.66000000	      2.16042186	     -0.93275521	     -8.33221281	     -0.08234158	      1.04618934	      0.00701092	    -13.00021860	     -7.00274078	    -12.79072640	     -1.24505482	      7.03990692	      0.02292604	     57.36900371	    -48.15610569	     64.56986255	     63.99004764	     11.28115192	     17.69416552	      9.45995131	     -6.24768884	     -4.89848862	      5.03730543	     -4.12746362	     -5.18282637	     -1.27641688	     57.07705263	    -53.80288555	    -45.58716704	     61.17782800	     15.13296467	     -1.26879979	    -24.99999983
      1.67000000	      2.08259847	     -1.00291055	     -8.61579784	     -0.08249010	      1.04615547	      0.00704752	    -12.96033445	     -6.73568144	    -12.59462703	     -1.12508857	      7.40439021	     -0.16232701	     57.58497342	    -47.93207532	     64.66864153	     65.14447834	     11.26741228	     17.95147991	      9.55025120	     -6.18956582	     -4.58418047	      4.88269105	     -4.29329688	     -4.85720062	     -1.11572265	     57.39035326	    -53.77721168	    -45.65931245	     62.23627089	     15.06197186	     -1.28529084	    -24.99999983
